HIERARCHY
ROOT Pelvis
{
	OFFSET 0.000000 0.000000 0.000000
	CHANNELS 6 Xposition Yposition Zposition Xrotation Yrotation Zrotation
	JOINT LeftUpLeg_virtual
	{
		OFFSET 0.000000 0.000000 0.000000
		CHANNELS 3 Xrotation Yrotation Zrotation
		JOINT LeftUpLeg
		{
			OFFSET 18.735201 -5.666702 -4.541200
			CHANNELS 3 Xrotation Yrotation Zrotation
			JOINT LeftLeg
			{
				OFFSET -0.021200 -31.938179 0.493100
				CHANNELS 3 Xrotation Yrotation Zrotation
				JOINT LeftFoot
				{
					OFFSET 0.021200 -31.938179 -4.336299
					CHANNELS 3 Xrotation Yrotation Zrotation
					JOINT LeftToeBase
					{
						OFFSET 0.943001 -26.722000 15.023500
						CHANNELS 3 Xrotation Yrotation Zrotation
						End Site
						{
							OFFSET 0 0 0
						}
					}
				}
			}
		}
	}
	JOINT RightUpLeg_virtual
	{
		OFFSET 0.000000 0.000000 0.000000
		CHANNELS 3 Xrotation Yrotation Zrotation
		JOINT RightUpLeg
		{
			OFFSET -18.735201 -5.666702 -4.541200
			CHANNELS 3 Xrotation Yrotation Zrotation
			JOINT RightLeg
			{
				OFFSET 0.018946 -31.938133 0.493100
				CHANNELS 3 Xrotation Yrotation Zrotation
				JOINT RightFoot
				{
					OFFSET -0.018946 -31.938126 -4.336299
					CHANNELS 3 Xrotation Yrotation Zrotation
					JOINT RightToeBase
					{
						OFFSET -0.943001 -26.722004 15.023500
						CHANNELS 3 Xrotation Yrotation Zrotation
						End Site
						{
							OFFSET 0 0 0
						}
					}
				}
			}
		}
	}
	JOINT Hips_virtual
	{
		OFFSET 0.000000 0.000000 0.000000
		CHANNELS 3 Xrotation Yrotation Zrotation
		JOINT Hips
		{
			OFFSET -0.000000 -0.000000 -0.000000
			CHANNELS 3 Xrotation Yrotation Zrotation
			JOINT Spine
			{
				OFFSET 0.000000 10.199997 -0.299500
				CHANNELS 3 Xrotation Yrotation Zrotation
				JOINT Spine1
				{
					OFFSET 0.000000 11.900002 -1.516600
					CHANNELS 3 Xrotation Yrotation Zrotation
					JOINT Spine2
					{
						OFFSET 0.000000 13.600006 -2.842500
						CHANNELS 3 Xrotation Yrotation Zrotation
						JOINT Neck_virtual
						{
							OFFSET 0.000000 0.000000 0.000000
							CHANNELS 3 Xrotation Yrotation Zrotation
							JOINT Neck
							{
								OFFSET 0.000000 9.624100 -2.890100
								CHANNELS 3 Xrotation Yrotation Zrotation
								JOINT Head
								{
									OFFSET 0.000000 14.068802 -1.351900
									CHANNELS 3 Xrotation Yrotation Zrotation
									End Site
									{
										OFFSET 0 0 0
									}
								}
							}
						}
						JOINT LeftShoulder_virtual
						{
							OFFSET 0.000000 0.000000 0.000000
							CHANNELS 3 Xrotation Yrotation Zrotation
							JOINT LeftShoulder
							{
								OFFSET 15.263000 10.923401 -0.547700
								CHANNELS 3 Xrotation Yrotation Zrotation
								JOINT LeftArm
								{
									OFFSET 25.438599 -2.830597 -13.032500
									CHANNELS 3 Xrotation Yrotation Zrotation
									JOINT LeftForeArm
									{
										OFFSET 29.960503 0.000000 0.000000
										CHANNELS 3 Xrotation Yrotation Zrotation
										JOINT LeftHand
										{
											OFFSET 27.849251 0.000000 0.000000
											CHANNELS 3 Xrotation Yrotation Zrotation
											End Site
											{
												OFFSET 0 0 0
											}
										}
									}
								}
							}
						}
						JOINT RightShoulder_virtual
						{
							OFFSET 0.000000 0.000000 0.000000
							CHANNELS 3 Xrotation Yrotation Zrotation
							JOINT RightShoulder
							{
								OFFSET -15.263000 10.923401 -0.547700
								CHANNELS 3 Xrotation Yrotation Zrotation
								JOINT RightArm
								{
									OFFSET -25.438599 -2.830597 -13.032500
									CHANNELS 3 Xrotation Yrotation Zrotation
									JOINT RightForeArm
									{
										OFFSET -29.960503 0.000000 0.000000
										CHANNELS 3 Xrotation Yrotation Zrotation
										JOINT RightHand
										{
											OFFSET -27.849251 0.000000 0.000000
											CHANNELS 3 Xrotation Yrotation Zrotation
											End Site
											{
												OFFSET 0 0 0
											}
										}
									}
								}
							}
						}
					}
				}
			}
		}
	}
}
MOTION
Frames: 12
Frame Time: 0.03333333
0.456528 94.564346 2.927655 0.000000 0.000000 0.000000 9.519680 -3.172383 -1.628349 -28.851966 11.217036 14.864203 35.313905 5.614055 -1.212356 -12.568287 6.292710 -3.569782 0.000000 0.000000 0.000000 3.768547 -15.225330 3.367111 -26.323305 -9.345612 -12.732514 31.570227 5.708746 -3.953082 -16.865407 4.012639 7.959181 0.000000 0.000000 0.000000 -1.014817 -4.704361 0.088241 0.943587 6.848118 -3.134794 3.688671 -1.425161 1.209944 -0.207107 -0.425019 1.214273 0.000000 0.000000 0.000000 0.325424 0.290672 0.621678 -1.494442 0.541234 0.147004 0.000000 0.000000 0.000000 -0.236156 0.969989 0.620106 -0.460283 1.547640 -5.785695 11.049558 -27.643287 -47.053224 19.487879 -59.144780 8.269083 0.000000 0.000000 0.000000 1.644356 -0.859727 0.614467 0.487449 6.371035 7.017131 3.445071 16.713644 49.655455 7.037647 58.275331 -0.388444 0.000000 0.000000 0.000000 
0.475469 94.590027 2.944707 0.000000 0.000000 0.000000 9.558410 -3.200078 -1.648402 -28.810390 11.227481 14.843193 35.295747 5.637692 -1.204682 -12.605026 6.314857 -3.553994 0.000000 0.000000 0.000000 3.715164 -15.451387 3.388793 -26.431497 -9.398042 -12.729567 31.593108 5.747200 -4.021929 -16.861978 4.092003 7.859646 0.000000 0.000000 0.000000 -1.006895 -4.758621 0.091604 0.974194 6.970617 -3.160025 3.731827 -1.467384 1.190175 -0.205866 -0.417794 1.243654 0.000000 0.000000 0.000000 0.330827 0.283453 0.630384 -1.485108 0.542108 0.144140 0.000000 0.000000 0.000000 -0.275045 0.970998 0.628853 -0.471758 1.628067 -5.836978 11.232844 -28.053224 -46.909896 19.895134 -59.525304 8.557468 0.000000 0.000000 0.000000 1.669399 -0.852617 0.638330 0.539402 6.384489 7.065761 3.330776 16.543196 49.841885 6.865089 58.226823 -0.190840 0.000000 0.000000 0.000000 
0.510703 94.636253 2.977152 0.000000 0.000000 0.000000 9.618382 -3.245681 -1.690094 -28.748608 11.246559 14.801071 35.267388 5.677506 -1.190561 -12.668329 6.352185 -3.527430 0.000000 0.000000 0.000000 3.619791 -15.846324 3.427177 -26.625455 -9.488893 -12.723222 31.638676 5.815577 -4.139515 -16.853447 4.230502 7.691070 0.000000 0.000000 0.000000 -0.995165 -4.864149 0.100624 1.028517 7.206627 -3.200781 3.807549 -1.536981 1.157665 -0.201286 -0.404664 1.297594 0.000000 0.000000 0.000000 0.338311 0.273884 0.647713 -1.467938 0.543811 0.139654 0.000000 0.000000 0.000000 -0.339613 0.973331 0.643876 -0.490655 1.768973 -5.928003 11.563066 -28.794213 -46.639441 20.653456 -60.239796 9.103319 0.000000 0.000000 0.000000 1.721256 -0.838822 0.682111 0.637434 6.403105 7.146725 3.126308 16.225464 50.193172 6.550069 58.113811 0.183073 0.000000 0.000000 0.000000 
0.558787 94.693726 3.021090 0.000000 0.000000 0.000000 9.672324 -3.289533 -1.755794 -28.700011 11.272402 14.738368 35.238510 5.721296 -1.172128 -12.743676 6.393504 -3.498591 0.000000 0.000000 0.000000 3.500264 -16.316873 3.473112 -26.868870 -9.595042 -12.714103 31.705499 5.900221 -4.274046 -16.838045 4.395930 7.501583 0.000000 0.000000 0.000000 -0.984663 -5.011653 0.119673 1.097324 7.540015 -3.240283 3.899963 -1.610278 1.122701 -0.191356 -0.387886 1.367860 0.000000 0.000000 0.000000 0.343499 0.269169 0.672675 -1.445235 0.545911 0.135326 0.000000 0.000000 0.000000 -0.409177 0.977434 0.661351 -0.510391 1.936525 -6.040853 11.979728 -29.735300 -46.272025 21.665061 -61.205803 9.850327 0.000000 0.000000 0.000000 1.802038 -0.819232 0.738448 0.771355 6.413435 7.231977 2.872730 15.805384 50.666780 6.146465 57.916220 0.690877 0.000000 0.000000 0.000000 
0.617860 94.750877 3.070533 0.000000 0.000000 0.000000 9.694957 -3.304558 -1.847315 -28.695670 11.305181 14.657011 35.212562 5.756457 -1.151657 -12.820004 6.427544 -3.476531 0.000000 0.000000 0.000000 3.374272 -16.764882 3.514892 -27.123361 -9.691687 -12.705587 31.789268 5.987324 -4.394236 -16.816057 4.556122 7.338222 0.000000 0.000000 0.000000 -0.977232 -5.181620 0.154425 1.175047 7.949355 -3.259112 3.995475 -1.663739 1.093489 -0.176606 -0.369892 1.444914 0.000000 0.000000 0.000000 0.343943 0.275363 0.702403 -1.419182 0.547267 0.132503 0.000000 0.000000 0.000000 -0.463482 0.983638 0.677732 -0.524189 2.092965 -6.158186 12.415244 -30.733256 -45.847467 22.812391 -62.322020 10.725557 0.000000 0.000000 0.000000 1.912097 -0.795212 0.797862 0.928990 6.402141 7.289614 2.614415 15.345249 51.202609 5.719103 57.626996 1.272948 0.000000 0.000000 0.000000 
0.688856 94.796234 3.119484 0.000000 0.000000 0.000000 9.673191 -3.263325 -1.964588 -28.751630 11.347704 14.560341 35.182619 5.774213 -1.130559 -12.894611 6.446616 -3.467405 0.000000 0.000000 0.000000 3.254791 -17.114034 3.540693 -27.357679 -9.759096 -12.703818 31.881428 6.066989 -4.479345 -16.791277 4.688788 7.231538 0.000000 0.000000 0.000000 -0.969851 -5.343395 0.210065 1.262683 8.407806 -3.239996 4.088404 -1.681404 1.072167 -0.160625 -0.352323 1.519882 0.000000 0.000000 0.000000 0.340694 0.295005 0.731842 -1.391266 0.546101 0.131434 0.000000 0.000000 0.000000 -0.488526 0.992135 0.691056 -0.527245 2.206819 -6.267568 12.807136 -31.667185 -45.411018 23.977229 -63.485837 11.647808 0.000000 0.000000 0.000000 2.048304 -0.768467 0.850843 1.098510 6.361356 7.293107 2.382971 14.915883 51.730883 5.326756 57.263801 1.862754 0.000000 0.000000 0.000000 
0.774610 94.820724 3.165525 0.000000 0.000000 0.000000 9.610608 -3.148224 -2.104821 -28.862972 11.403983 14.452274 35.134558 5.772180 -1.108808 -12.972116 6.448557 -3.472082 0.000000 0.000000 0.000000 3.149531 -17.323180 3.541780 -27.550842 -9.786583 -12.715493 31.969814 6.134627 -4.523158 -16.770496 4.785238 7.189425 0.000000 0.000000 0.000000 -0.956991 -5.460872 0.288746 1.365858 8.883163 -3.171794 4.181978 -1.657631 1.054050 -0.148072 -0.335327 1.585690 0.000000 0.000000 0.000000 0.337594 0.327029 0.754421 -1.362292 0.540583 0.131262 0.000000 0.000000 0.000000 -0.478255 1.003347 0.701389 -0.517882 2.259761 -6.361085 13.101725 -32.457445 -45.010407 25.051952 -64.608146 12.533866 0.000000 0.000000 0.000000 2.203684 -0.740744 0.889968 1.270036 6.291693 7.228416 2.186284 14.584344 52.183376 5.007968 56.868053 2.400342 0.000000 0.000000 0.000000 
0.877430 94.819038 3.212979 0.000000 0.000000 0.000000 9.524880 -2.959513 -2.262421 -29.006400 11.476590 14.336311 35.055994 5.754503 -1.085419 -13.058540 6.436705 -3.486365 0.000000 0.000000 0.000000 3.063481 -17.385683 3.515611 -27.690384 -9.773326 -12.744395 32.041507 6.189703 -4.531926 -16.760967 4.848049 7.200197 0.000000 0.000000 0.000000 -0.935320 -5.503803 0.387382 1.488659 9.340606 -3.051811 4.284643 -1.594877 1.030040 -0.141727 -0.317536 1.637314 0.000000 0.000000 0.000000 0.338876 0.368601 0.763461 -1.332869 0.529621 0.130611 0.000000 0.000000 0.000000 -0.433170 1.018639 0.710350 -0.497519 2.248171 -6.431304 13.252467 -33.068579 -44.693910 25.944760 -65.622948 13.304064 0.000000 0.000000 0.000000 2.368454 -0.713391 0.911095 1.436268 6.201929 7.096532 2.008862 14.402528 52.503524 4.776427 56.490790 2.842610 0.000000 0.000000 0.000000 
0.996470 94.790009 3.273487 0.000000 0.000000 0.000000 9.440242 -2.715858 -2.429553 -29.149116 11.564734 14.215316 34.945082 5.729911 -1.059812 -13.154760 6.418430 -3.503723 0.000000 0.000000 0.000000 3.001856 -17.320649 3.467425 -27.769046 -9.726804 -12.788844 32.087406 6.233140 -4.518864 -16.766806 4.885509 7.241010 0.000000 0.000000 0.000000 -0.906865 -5.459625 0.497214 1.627374 9.748639 -2.885233 4.404317 -1.499057 0.990625 -0.140887 -0.296724 1.671342 0.000000 0.000000 0.000000 0.346750 0.417400 0.753698 -1.303960 0.513372 0.128403 0.000000 0.000000 0.000000 -0.358008 1.040851 0.720077 -0.469670 2.180579 -6.467231 13.220401 -33.501904 -44.505943 26.585446 -66.492616 13.891108 0.000000 0.000000 0.000000 2.532099 -0.686890 0.913121 1.592078 6.106121 6.910631 1.823451 14.400301 52.651306 4.627438 56.173385 3.165569 0.000000 0.000000 0.000000 
1.126671 94.736244 3.362856 0.000000 0.000000 0.000000 9.378878 -2.446644 -2.597010 -29.259530 11.664034 14.092207 34.813676 5.708741 -1.033055 -13.253760 6.402938 -3.518753 0.000000 0.000000 0.000000 2.971660 -17.161680 3.409361 -27.782228 -9.659901 -12.841363 32.105393 6.265279 -4.498374 -16.786850 4.906425 7.286979 0.000000 0.000000 0.000000 -0.877423 -5.338347 0.605996 1.766699 10.083099 -2.681846 4.543674 -1.375680 0.929259 -0.142088 -0.270802 1.685397 0.000000 0.000000 0.000000 0.360586 0.472813 0.722369 -1.277079 0.493106 0.124455 0.000000 0.000000 0.000000 -0.259979 1.074228 0.732189 -0.438479 2.073346 -6.453331 12.980494 -33.783789 -44.478895 26.934470 -67.206910 14.252392 0.000000 0.000000 0.000000 2.685523 -0.660648 0.896813 1.733555 6.019894 6.689724 1.606270 14.584812 52.601213 4.549513 55.933560 3.359603 0.000000 0.000000 0.000000 
1.259628 94.663780 3.495482 0.000000 0.000000 0.000000 9.354879 -2.180187 -2.755091 -29.315476 11.768020 13.971159 34.682908 5.700195 -1.008027 -13.343314 6.399053 -3.529224 0.000000 0.000000 0.000000 2.981239 -16.946582 3.357386 -27.727146 -9.587458 -12.890710 32.100291 6.285584 -4.481942 -16.815465 4.917331 7.318194 0.000000 0.000000 0.000000 -0.851722 -5.167725 0.701963 1.880132 10.326332 -2.452169 4.698438 -1.228711 0.843934 -0.141237 -0.238370 1.677875 0.000000 0.000000 0.000000 0.377814 0.535626 0.669643 -1.253981 0.470529 0.119631 0.000000 0.000000 0.000000 -0.147650 1.123580 0.747229 -0.407170 1.946978 -6.372338 12.531789 -33.953191 -44.623692 26.992225 -67.777524 14.381156 0.000000 0.000000 0.000000 2.822662 -0.633160 0.863657 1.857216 5.957334 6.451932 1.346728 14.944748 52.336065 4.534015 55.763276 3.421766 0.000000 0.000000 0.000000 
1.386353 94.581947 3.678297 0.000000 0.000000 0.000000 9.372398 -1.934972 -2.894694 -29.307792 11.870192 13.858030 34.573769 5.710620 -0.988319 -13.412435 6.413486 -3.535831 0.000000 0.000000 0.000000 3.038197 -16.709768 3.327132 -27.603730 -9.522990 -12.925230 32.080603 6.293984 -4.476245 -16.846105 4.922341 7.323705 0.000000 0.000000 0.000000 -0.828596 -4.980640 0.777738 1.933642 10.460848 -2.204551 4.858680 -1.061627 0.736687 -0.135775 -0.198769 1.648198 0.000000 0.000000 0.000000 0.395864 0.606731 0.598442 -1.236078 0.446969 0.115592 0.000000 0.000000 0.000000 -0.029933 1.193008 0.764785 -0.377062 1.823270 -6.210247 11.904186 -34.050716 -44.924531 26.801329 -68.230134 14.309858 0.000000 0.000000 0.000000 2.941079 -0.602584 0.815345 1.959935 5.928576 6.210010 1.047699 15.456356 51.841392 4.578026 55.637758 3.350206 0.000000 0.000000 0.000000 
